<svg id="Layer_1" data-name="Layer 1" class="logo-svg"
  xmlns="http://www.w3.org/2000/svg" viewBox="0 0 336.2 55.66">
  <defs>
    <style>.cls-1{fill:#bf5700;}.cls-2{fill:#333f48;}</style>
  </defs>
  <polygon class="cls-1" points="22.16 18.39 22.21 18.39 22.21 18.37 22.16 18.37 22.16 18.39 22.16 18.39"/>
  <path class="cls-1" d="M27.61,13.85a21.25,21.25,0,0,0-3.19-.35,6.27,6.27,0,0,0-1.38.15L22.81,7.3V6.24A4.28,4.28,0,0,1,24.49,6a21.16,21.16,0,0,1,3,.3c1,.14,1.92.28,2.92.34l.27,7.6c-1-.05-2.05-.21-3.05-.36Zm-10.85,0c-1,.15-2,.31-3.05.36L14,6.61c1-.06,2-.2,2.92-.34a21.16,21.16,0,0,1,3-.3,4.28,4.28,0,0,1,1.68.27V7.3l-.23,6.35A6.27,6.27,0,0,0,20,13.5a21.39,21.39,0,0,0-3.19.35ZM32.91,9.36V7.91H32V5.45h-.6a26,26,0,0,1-3.77-.37,23.17,23.17,0,0,0-3.16-.32,5.3,5.3,0,0,0-2.3.44,5.32,5.32,0,0,0-2.31-.44,23.17,23.17,0,0,0-3.16.32A25.89,25.89,0,0,1,13,5.45h-.6V7.91h-.89V9.36h.89v2h-.88v1.44h.88v2.68H13a27.38,27.38,0,0,0,4-.4,21,21,0,0,1,3-.33,3.53,3.53,0,0,1,1.66.32h1.16a3.46,3.46,0,0,1,1.65-.32,20.73,20.73,0,0,1,3,.33,27.38,27.38,0,0,0,4,.4H32V12.76h.88V11.32H32v-2Z"/>
  <path class="cls-1" d="M16.92,7.36l-.17,0c-.57.08-1.14.17-1.73.23l0,1c.64-.07,1.27-.16,1.9-.26h0v-1Z"/>
  <path class="cls-1" d="M17.65,7.26v1a13.09,13.09,0,0,1,2.78-.17l0-1a13.71,13.71,0,0,0-2.81.16Z"/>
  <path class="cls-1" d="M16.92,11.77l-.17,0c-.62.09-1.25.18-1.88.25l0,1c.7-.07,1.38-.17,2.06-.27h0v-1Z"/>
  <path class="cls-1" d="M17.65,11.67v1a14.68,14.68,0,0,1,2.62-.19l0-.95a13.64,13.64,0,0,0-2.65.17Z"/>
  <path class="cls-1" d="M16.77,9.59v1h.12a17.85,17.85,0,0,1,3.46-.3l0-.95a17.88,17.88,0,0,0-3.61.29Z"/>
  <path class="cls-1" d="M16.05,9.69q-.54.09-1.11.15l0,1,1.14-.14v-1Z"/>
  <path class="cls-1" d="M26.29,7.2a12.17,12.17,0,0,0-2.38-.1l0,1a11.42,11.42,0,0,1,2.35.12v-1Z"/>
  <path class="cls-1" d="M29.35,7.62c-.58-.06-1.16-.15-1.73-.23L27,7.3v1l.47.07c.63.1,1.26.19,1.9.26l0-1Z"/>
  <path class="cls-1" d="M26.09,9.39A10.81,10.81,0,0,0,24,9.3l0,.95a11.54,11.54,0,0,1,2.07.1v-1Z"/>
  <path class="cls-1" d="M29.43,9.84c-.61-.07-1.21-.16-1.81-.25l-.81-.11v1l.67.1c.65.09,1.31.19,2,.26l0-1Z"/>
  <path class="cls-1" d="M27.53,12.76c.66.1,1.33.19,2,.26l0-1c-.64-.07-1.27-.16-1.89-.25h-.09v1Z"/>
  <path class="cls-1" d="M26.81,11.68a14.59,14.59,0,0,0-2.74-.18l0,.95a14.93,14.93,0,0,1,2.71.21v-1Z"/>
  <path class="cls-1" d="M20.93,27.23l1.26-3.13,1.25,3.13,3.37.23-2.59,2.16L25,32.89l-2.85-1.8-2.86,1.8.83-3.27-2.6-2.16,3.37-.23ZM13.3,26.12h0l5.44,4-2.09,6.45s0,0,0,0h0l5.49-4,5.48,4h0s0,0,0-.05l-2.09-6.43,5.44-4h0s.05,0,0-.06,0,0-.06,0H24.31l-2.08-6.4h0a0,0,0,0,0,0-.05,0,0,0,0,0-.05.05h0L20.06,26H13.32s-.05,0-.06,0a.05.05,0,0,0,0,.06Z"/>
  <path class="cls-1" d="M35.7,34.21a3.64,3.64,0,0,1-1.83,1.09,3.6,3.6,0,0,1,.9-1.93,3.54,3.54,0,0,1,1.83-1.09,3.6,3.6,0,0,1-.9,1.93ZM33.07,30a3.57,3.57,0,0,1,.36-2.11,3.57,3.57,0,0,1,.88,1.94A3.65,3.65,0,0,1,34,31.92,3.58,3.58,0,0,1,33.07,30Zm1.46-5.51a3.61,3.61,0,0,1,.23-2.13,3.66,3.66,0,0,1,1,1.89,3.58,3.58,0,0,1-.23,2.12,3.53,3.53,0,0,1-1-1.88ZM38,26.07a3.62,3.62,0,0,1-2,3.53,3.67,3.67,0,0,1,2-3.53ZM32.67,39.76a3.59,3.59,0,0,1-2,.69,3.59,3.59,0,0,1,1.29-1.71,3.5,3.5,0,0,1,2-.68,3.68,3.68,0,0,1-1.29,1.7ZM31,35.07a3.63,3.63,0,0,1,.78-2,3.59,3.59,0,0,1,.47,2.08,3.69,3.69,0,0,1-.78,2A3.61,3.61,0,0,1,31,35.07ZM29.07,40a3.66,3.66,0,0,1-1.18,1.78A3.61,3.61,0,0,1,29,37.85a3.68,3.68,0,0,1,0,2.13Zm1.1,3.18a3.62,3.62,0,0,1-1.61,1.41,3.73,3.73,0,0,1-1.47.31h0a3.57,3.57,0,0,1-.65-.06,3.65,3.65,0,0,1,1.61-1.4,3.6,3.6,0,0,1,2.12-.26Zm-6.29.29A3.6,3.6,0,0,1,25.4,42,3.57,3.57,0,0,1,25,44a3.72,3.72,0,0,1-1.52,1.5,3.54,3.54,0,0,1,.41-2.09Zm-8.14,1.12a3.67,3.67,0,0,1-1.61-1.41,3.65,3.65,0,0,1,3.73,1.66,3.68,3.68,0,0,1-2.12-.25ZM15.23,40a3.68,3.68,0,0,1,0-2.13,3.62,3.62,0,0,1,1.18,1.78,3.52,3.52,0,0,1,0,2.13A3.66,3.66,0,0,1,15.23,40Zm3.67,2a3.64,3.64,0,0,1,1.52,1.49,3.59,3.59,0,0,1,.41,2.1A3.72,3.72,0,0,1,19.31,44,3.65,3.65,0,0,1,18.9,42Zm-7.27-2.19a3.59,3.59,0,0,1-1.28-1.7,3.53,3.53,0,0,1,2,.68,3.63,3.63,0,0,1,1.28,1.71,3.59,3.59,0,0,1-2-.69Zm.92-6.67a3.66,3.66,0,0,1,.32,4.07,3.61,3.61,0,0,1-.32-4.07Zm-4,1.12a3.6,3.6,0,0,1-.9-1.93,3.5,3.5,0,0,1,1.83,1.09,3.6,3.6,0,0,1,.9,1.93A3.64,3.64,0,0,1,8.6,34.21ZM8.35,29.6a3.62,3.62,0,0,1-2-3.53A3.62,3.62,0,0,1,8.35,29.6Zm.19-5.37a3.63,3.63,0,0,1,1-1.89,3.67,3.67,0,0,1,.24,2.12,3.61,3.61,0,0,1-1,1.89,3.58,3.58,0,0,1-.23-2.12ZM10,29.81a3.51,3.51,0,0,1,.89-1.94,3.67,3.67,0,0,1-.53,4.05A3.57,3.57,0,0,1,10,29.81Zm25.71.91a4.49,4.49,0,0,0,2.65-2.08,4.58,4.58,0,0,0,.51-3.34l-.11-.5-.49.15a4.57,4.57,0,0,0-1.55.8,4.42,4.42,0,0,0,0-1.7A4.65,4.65,0,0,0,34.9,21.2l-.42-.31-.28.44a4.59,4.59,0,0,0,1.18,6.15A4.2,4.2,0,0,0,35,28.71a4.58,4.58,0,0,0-1.4-2l-.4-.33-.3.42a4.63,4.63,0,0,0-.82,3.27,4.54,4.54,0,0,0,1.64,2.95l0,0a4.38,4.38,0,0,0-.62,1.17,4.65,4.65,0,0,0-1-2.22l-.32-.4-.38.35A4.59,4.59,0,0,0,31,38.22l0,0a4.61,4.61,0,0,0-.86,1,4.55,4.55,0,0,0-.47-2.37l-.23-.46-.45.26a4.62,4.62,0,0,0-1.77,6v0a4.82,4.82,0,0,0-1,.82,4.62,4.62,0,0,0,0-2.42l-.13-.5-.49.17a4.59,4.59,0,0,0-3,5.42l-.46.31-.46-.31a4.58,4.58,0,0,0-3-5.42l-.49-.17-.13.5a4.62,4.62,0,0,0,0,2.42,4.38,4.38,0,0,0-1-.82v0a4.56,4.56,0,0,0,.3-3.36,4.61,4.61,0,0,0-2.07-2.67l-.44-.26-.24.46a4.55,4.55,0,0,0-.47,2.37,4.6,4.6,0,0,0-.85-1v0a4.53,4.53,0,0,0,1-3.22,4.58,4.58,0,0,0-1.48-3l-.38-.35-.32.4a4.54,4.54,0,0,0-.95,2.22,4.41,4.41,0,0,0-.63-1.17l0,0a4.54,4.54,0,0,0,1.64-2.95,4.59,4.59,0,0,0-.82-3.27l-.3-.42-.4.33a4.48,4.48,0,0,0-1.39,2,4.92,4.92,0,0,0-.35-1.23,4.6,4.6,0,0,0,1.17-6.15l-.28-.44-.41.31A4.57,4.57,0,0,0,7.6,24a4.47,4.47,0,0,0,0,1.71A4.62,4.62,0,0,0,6.05,25l-.5-.15-.11.5A4.58,4.58,0,0,0,6,28.64,4.52,4.52,0,0,0,8.6,30.72l.43.13a5,5,0,0,0,.27,1.08,4.48,4.48,0,0,0-2.08-.7l-.51,0v.51a4.59,4.59,0,0,0,4.21,4.65l.45,0a4.56,4.56,0,0,0,.49,1,4.58,4.58,0,0,0-1.6-.29,3.9,3.9,0,0,0-.59,0l-.51.06.1.51a4.57,4.57,0,0,0,1.82,2.84,4.53,4.53,0,0,0,2.69.87l.57,0,.45-.06a4.43,4.43,0,0,0,.68.87,4.67,4.67,0,0,0-2.19.2l-.48.17L13,43a4.6,4.6,0,0,0,5.73,2.55l.36-.13a26.81,26.81,0,0,0,2.21,1.66L19.87,48l.9.56c.51-.33,1-.62,1.38-.9.41.28.87.57,1.38.9l.9-.56L23,47.12a26.44,26.44,0,0,0,2.2-1.66l.36.13a4.6,4.6,0,0,0,1.51.25h0A4.56,4.56,0,0,0,31.31,43l.21-.48L31,42.39a4.54,4.54,0,0,0-2.19-.19,4.81,4.81,0,0,0,.68-.88l.45.06a5.49,5.49,0,0,0,.58,0h0a4.58,4.58,0,0,0,4.5-3.71l.1-.51-.51-.06a3.9,3.9,0,0,0-.59,0,4.48,4.48,0,0,0-1.59.29,4.53,4.53,0,0,0,.48-1l.45,0A4.57,4.57,0,0,0,37.6,31.7v-.51l-.52,0a4.48,4.48,0,0,0-2.08.7,5,5,0,0,0,.27-1.08l.43-.13Z"/>
  <path class="cls-1" d="M35.83,40.9A25.59,25.59,0,0,1,32.37,45a37.4,37.4,0,0,1-10.19,6.51A37.4,37.4,0,0,1,12,45,26.12,26.12,0,0,1,8.53,40.9C3.79,34,3.17,25.9,3.16,19.64h0l19-1.05,19,1.05c0,6.26-.63,14.32-5.37,21.26ZM4.18,3.48c3.53-.39,11.48-1.18,18-1.18s14.47.79,18,1.18l1,13.93h-38l1-13.93Zm39-1.61-.85-.11A197.37,197.37,0,0,0,22.19.35h0A197.37,197.37,0,0,0,2.09,1.76l-.85.11V17.41h0v2.17c0,6.54.65,15,5.7,22.41a27.11,27.11,0,0,0,3.65,4.3h0l0,0a54.89,54.89,0,0,0,11.56,8h0a55.06,55.06,0,0,0,11.55-8l0,0h0A26.6,26.6,0,0,0,37.42,42c5.06-7.4,5.71-15.87,5.71-22.41v-.31h0V1.87Z"/>
  <path class="cls-2" d="M75.9,41l-.78,4.32a28.93,28.93,0,0,1-7.29,2.34c-5.58,0-10.8-3.78-10.8-10.77s4.65-10.41,11.34-11.31a13.07,13.07,0,0,1,7.17,2.34V32H73.89l-1-2.79a6.84,6.84,0,0,0-5-2c-4.44,0-7.47,3.15-7.47,9,0,4.86,3,9.84,8.22,9.84a6.07,6.07,0,0,0,3.93-1.68L74.25,41Z"/>
  <path class="cls-2" d="M92.07,39.76c0,4.47-2.73,7.05-7.38,7.8-4,0-6.69-3.09-6.69-7.17,0-4.5,2.73-7,7.38-7.83C89.37,32.56,92.07,35.68,92.07,39.76Zm-6.63,6.33c2.4,0,3.63-2.46,3.63-5.7,0-3.81-1.83-6.36-4.44-6.36C82.2,34,81,36.49,81,39.76,81,43.18,82.77,46.09,85.44,46.09Z"/>
  <path class="cls-2" d="M96.72,47.05l-3.45.09-.15-1,2.1-.3V27.73l-2.1.06L93,26.74l3.6-.93,1.5-.12v20.1l2.25.3-.15,1Z"/>
  <path class="cls-2" d="M104.82,47.05l-3.45.09-.15-1,2.1-.3V27.73l-2.1.06-.15-1.05,3.6-.93,1.5-.12v20.1l2.25.3-.15,1Z"/>
  <path class="cls-2" d="M112.11,39.46c0,3.42,1.83,5.85,5,5.85a7.76,7.76,0,0,0,3.75-1.26l.48,1.14a18.3,18.3,0,0,1-5.25,2.37c-3.63,0-6.9-2.58-6.9-7.29,0-4.44,2.67-6.81,6.78-7.71,4,0,5.31,2.49,5.31,5.64v1.26Zm6-1.5c0-2.31-.45-3.9-2.76-3.9-1.83,0-3,1.71-3.24,4.2Z"/>
  <path class="cls-2" d="M134.13,34.39l1.62-1.83h1.8V35h-1.8l-1,.48a3.86,3.86,0,0,1,.3,1.44c0,2.55-1.77,4.35-5.85,5.4a7.26,7.26,0,0,1-1.17-.06l-1.62,1.86a1,1,0,0,0,1.17,1h5.49c2.73,0,3.93,1.26,3.93,3.09,0,2.46-3.12,4.86-7.65,6.21-4.35,0-6.54-1.35-6.54-4.14v-.51l3.27-2.52c-2.1-.78-2.25-1.74-2.25-3.12V44l3-2.07a4.22,4.22,0,0,1-3.12-4c0-2.55,1.74-4.35,5.85-5.4A5.88,5.88,0,0,1,134.13,34.39Zm-7,13.17c-1.53,1.68-1.65,2.22-1.65,2.64,0,1.41,1.62,2.49,4.08,2.49s4.56-1.59,4.56-3.6c0-1.08-.81-1.53-2.85-1.53Zm2-13.62c-1.62,0-2.55,1.26-2.55,3.18,0,1.44.63,3.78,3.09,3.78,1.62,0,2.55-1.11,2.55-2.85C132.21,36.49,131.58,33.94,129.12,33.94Z"/>
  <path class="cls-2" d="M140.64,39.46c0,3.42,1.83,5.85,5,5.85a7.76,7.76,0,0,0,3.75-1.26l.48,1.14a18.3,18.3,0,0,1-5.25,2.37c-3.63,0-6.9-2.58-6.9-7.29,0-4.44,2.67-6.81,6.78-7.71,4,0,5.31,2.49,5.31,5.64v1.26Zm6-1.5c0-2.31-.45-3.9-2.76-3.9-1.83,0-3,1.71-3.24,4.2Z"/>
  <path class="cls-2" d="M173.22,39.76c0,4.47-2.73,7.05-7.38,7.8-4,0-6.69-3.09-6.69-7.17,0-4.5,2.73-7,7.38-7.83C170.52,32.56,173.22,35.68,173.22,39.76Zm-6.63,6.33c2.4,0,3.63-2.46,3.63-5.7,0-3.81-1.83-6.36-4.44-6.36-2.43,0-3.63,2.46-3.63,5.73C162.15,43.18,163.92,46.09,166.59,46.09Z"/>
  <path class="cls-2" d="M180,33.31h3.75v1.41H180V45.79l3.45.21-.15,1.14-4.65-.09-3.45.09-.15-1,2.1-.3V34.72h-2.64v-.51l.9-1.05h1.74v-.3a5.82,5.82,0,0,1,1.65-4.2l2.52-2.85h3.78v2.4h-3.9l-.57.81c-.42.57-.63,1.44-.63,3.39Z"/>
  <path class="cls-2" d="M193.17,47.14l-.15-1,2.7-.39V27.52l-2.7-.39.15-1.05,4.14.09,11.91-.09.3,5.4h-1l-1.68-3.9-7.95-.09v8.4l4.2-.12,1.2-3.15h1l-.3,3.75.3,4.05h-1l-1.2-3.15-4.2-.12V45.7l3.6.39-.15,1-5-.09Z"/>
  <path class="cls-2" d="M213.87,47.05l-3.45.09-.15-1,2.1-.3V34.84l-2.1.18L210.12,34l3.6-.93,1.5-.12V45.79l2.25.3-.15,1Zm-1.5-20.64,2.16-.15.84.15.15,1.68-.33,1.44-2.13.18-.81-.18-.18-1.68Z"/>
  <path class="cls-2" d="M222.57,47.05l-3.45.09-.15-1,2.1-.3V34.84L219,35,218.82,34l3.6-.93,1.29-.09.15,2.52,4.44-2.91c3.84,0,4.47,1.29,4.47,4.89v8.34l2.28.3-.15,1-3.45-.09-2.88.09-.15-1,1.5-.3V37.21c0-1.56-.69-2.25-2-2.25a6.07,6.07,0,0,0-3.12,1.35l-.9.6v8.88l1.65.3-.15,1Z"/>
  <path class="cls-2" d="M238.35,39.46c0,3.42,1.83,5.85,5,5.85a7.76,7.76,0,0,0,3.75-1.26l.48,1.14a18.3,18.3,0,0,1-5.25,2.37c-3.63,0-6.9-2.58-6.9-7.29,0-4.44,2.67-6.81,6.78-7.71,4,0,5.31,2.49,5.31,5.64v1.26Zm6-1.5c0-2.31-.45-3.9-2.76-3.9-1.83,0-3,1.71-3.24,4.2Z"/>
  <path class="cls-2" d="M261.36,40.09l-1.95,5.61,2.61.39-.15,1-3.6-.09-3.21.09-.15-1,2.34-.33,7.44-19.44,1.8-.51,7.83,20,2.34.33-.15,1-4.14-.09-4,.09-.15-1,2.55-.39-2-5.61Zm4-9.33-.21-1.62-3.3,9.54h6.39Z"/>
  <path class="cls-2" d="M281.22,36.91l3.42-4.2H287v3h-2.22A6.84,6.84,0,0,0,282,37.84l-.6.72V45.7l3.15.3-.15,1.14L280,47.05l-3.36.09-.15-1,2.1-.3V34.84l-2.1.18L276.36,34,280,33l1.2-.09Z"/>
  <path class="cls-2" d="M288.24,34.72v-.51l1.05-1.05h1.95V31.21l1.95-1.95H294v4.11h4.53v1.35H294v8.79c0,.87.33,1.8,1.59,1.8a5.05,5.05,0,0,0,2.37-.72l.51,1-3.51,2c-3.36,0-3.81-1.2-3.81-3.9V34.72Z"/>
  <path class="cls-2" d="M307.71,34.69a4.66,4.66,0,0,0-2.28-.66c-1.17,0-2.28.63-2.28,1.77,0,1,.75,1.56,2.1,2.25l2.31,1.17c2,1,2.82,2.16,2.82,3.87,0,2.7-2.19,3.72-5.64,4.47a10.28,10.28,0,0,1-4.56-1.35l-.57-3.39h1.92l1,2.49a4.51,4.51,0,0,0,2.46.75,2.19,2.19,0,0,0,2.4-2.28c0-1.17-.63-1.68-2.19-2.49l-2.37-1.23a4.05,4.05,0,0,1-2.52-3.48c0-2.1,1.95-3.27,5.43-4A8,8,0,0,1,310,33.91v3H308.4Z"/>
  <path class="cls-1" d="M73.18,17.42l-1.88.06-.1-.7,1-.2V10.86c0-1-.48-1.5-1.28-1.5a4.82,4.82,0,0,0-2.12.9l-.6.38v5.94l1.1.2-.1.7-1.9-.06-2.1.06-.1-.7,1.2-.2V4.34l-.72.12L61.49,4.4V16.52l2.3.26-.1.7-3.24-.06-3.36.06-.1-.7,2.4-.26V4.4l-3,.06L55.47,7h-.78V3.42l5.74,0,4.93,0,2.14-.24h.68V9.66l2.92-1.9c2.56,0,3,1,3,3.5v5.32l1.5.2-.1.7Z"/>
  <path class="cls-1" d="M78.37,12.36c0,2.28,1.22,3.9,3.32,3.9a5.18,5.18,0,0,0,2.5-.84l.32.76A12.2,12.2,0,0,1,81,17.76a4.53,4.53,0,0,1-4.6-4.86c0-3,1.78-4.54,4.52-5.14,2.64,0,3.54,1.66,3.54,3.76v.84Zm4-1c0-1.54-.3-2.6-1.84-2.6-1.22,0-2,1.14-2.16,2.8Z"/>
  <path class="cls-1" d="M98.29,4.14l.1-.7L101,3.5l2.34-.06.1.7-1.71.26v8.16c0,2.6-1.06,4.34-5,5.26-3.94,0-5.34-2.12-5.34-5.3V4.4l-1.8-.26.1-.7,2.76.06,2.74-.06.1.7-1.7.26v8.42c0,2.48,1.06,3.9,3.34,3.9,2.08,0,3.24-1.4,3.24-4V4.4Z"/>
  <path class="cls-1" d="M106.09,17.42l-2.3.06-.1-.7,1.4-.2V9.28l-1.4.12-.1-.7,2.4-.62.86-.06L107,9.7l3-1.94c2.56,0,3,.86,3,3.26v5.56l1.52.2-.11.7-2.3-.06-1.92.06-.1-.7,1-.2V10.86c0-1-.46-1.5-1.32-1.5a4,4,0,0,0-2.08.9l-.6.4v5.92l1.1.2-.1.7Z"/>
  <path class="cls-1" d="M117.55,17.42l-2.3.06-.1-.7,1.4-.2V9.28l-1.4.12-.1-.7,2.4-.62,1-.08v8.58l1.5.2-.1.7Zm-1-13.76,1.44-.1.56.1.1,1.12-.22,1L117,5.86l-.54-.12-.12-1.12Z"/>
  <path class="cls-1" d="M125.57,16.18,128,8.94l-.92-.2.1-.7,1.76.06L130.59,8l.1.7-1.28.2-3.28,8.22-1.46.6-3.48-8.82L120,8.74l.1-.7,2.3.06,2.1-.06.1.7-1.32.2,2.18,5.86Z"/>
  <path class="cls-1" d="M132.65,12.36c0,2.28,1.22,3.9,3.32,3.9a5.18,5.18,0,0,0,2.5-.84l.32.76a12.2,12.2,0,0,1-3.5,1.58,4.53,4.53,0,0,1-4.6-4.86c0-3,1.78-4.54,4.52-5.14,2.64,0,3.54,1.66,3.54,3.76v.84Zm4-1c0-1.54-.3-2.6-1.84-2.6-1.22,0-2,1.14-2.16,2.8Z"/>
  <path class="cls-1" d="M143.23,10.66l2.28-2.8h1.6v2h-1.48a4.56,4.56,0,0,0-1.9,1.42l-.4.48v4.76l2.1.2-.1.76-2.9-.06-2.24.06-.1-.7,1.4-.2V9.28l-1.4.12-.1-.7,2.4-.62.8-.06Z"/>
  <path class="cls-1" d="M153.41,9.18a3.11,3.11,0,0,0-1.52-.44c-.78,0-1.52.42-1.52,1.18s.5,1,1.4,1.5l1.54.78c1.34.68,1.88,1.44,1.88,2.58,0,1.8-1.46,2.48-3.76,3a6.85,6.85,0,0,1-3-.9L148,14.6h1.28l.68,1.66a3,3,0,0,0,1.64.5,1.46,1.46,0,0,0,1.6-1.52c0-.78-.42-1.12-1.46-1.66l-1.58-.82a2.7,2.7,0,0,1-1.68-2.32c0-1.4,1.3-2.18,3.62-2.68a5.35,5.35,0,0,1,2.82.9v2h-1.06Z"/>
  <path class="cls-1" d="M158.93,17.42l-2.3.06-.1-.7,1.4-.2V9.28l-1.4.12-.1-.7,2.4-.62,1-.08v8.58l1.5.2-.1.7Zm-1-13.76,1.44-.1.56.1.1,1.12-.22,1-1.42.12-.54-.12-.12-1.12Z"/>
  <path class="cls-1" d="M168.85,22.17v-2h1.72l2-3-.8.24L168.39,9h-3v6.1c0,.58.22,1.2,1.06,1.2a4.22,4.22,0,0,0,1.76-.56l.34.68L166,17.76c-2.24,0-2.54-.8-2.54-2.6v-6h-1.94V8.86l.7-.7h1.3V6.86l1.3-1.3h.52v2.5h6.3l.1.68-1.32.2,2.22,5.86.16,1.38,2.48-7.24-.91-.2.1-.7,1.76.06L177.9,8l.1.7-1.28.2-3.25,8.18-2.24,5.05Z"/>
  <path class="cls-1" d="M191.17,12.56c0,3-1.82,4.7-4.92,5.2A4.46,4.46,0,0,1,181.79,13c0-3,1.82-4.7,4.92-5.22A4.48,4.48,0,0,1,191.17,12.56Zm-4.42,4.22c1.6,0,2.42-1.64,2.42-3.8,0-2.54-1.22-4.24-3-4.24s-2.42,1.64-2.42,3.82S185,16.78,186.75,16.78Z"/>
  <path class="cls-1" d="M195.67,8.26h2.5V9.2h-2.5v7.38l2.3.14-.1.76-3.1-.06-2.3.06-.1-.7,1.4-.2V9.2H192V8.86l.6-.7h1.16V8a3.88,3.88,0,0,1,1.1-2.8l1.68-1.9h2.52v1.6h-2.6l-.38.54a3.76,3.76,0,0,0-.42,2.26Z"/>
  <path class="cls-1" d="M213.47,17.48l-3.24-.06-3.36.06-.1-.7,2.4-.26V4.4l-3,0L205.25,7h-.78V3.44l5.74.06L216,3.44V7h-.78l-.92-2.54-3,0V16.52l2.3.26Z"/>
  <path class="cls-1" d="M217,12.36c0,2.28,1.22,3.9,3.32,3.9a5.18,5.18,0,0,0,2.5-.84l.32.76a12.2,12.2,0,0,1-3.5,1.58,4.53,4.53,0,0,1-4.6-4.86c0-3,1.78-4.54,4.52-5.14,2.64,0,3.54,1.66,3.54,3.76v.84Zm4-1c0-1.54-.3-2.6-1.84-2.6-1.22,0-2,1.14-2.16,2.8Z"/>
  <path class="cls-1" d="M227.69,16.78l-.1.7L226,17.42l-2.06.06-.1-.7,1.4-.2,3-3.64-2.9-4-1.24-.2.1-.72,2.3.06,1.9-.06.1.72-.78.2,1.48,2.22.16.52L231.25,9l-1-.2.1-.72,1.56.06L234,8l.1.72-1.44.2L230,12.16l3.14,4.42,1.24.2-.1.7-2.3-.06-1.9.06-.1-.7.82-.2L229,14l-.16-.46-2.12,3Z"/>
  <path class="cls-1" d="M239,7.76c2.52,0,3.16.64,3.16,3.18v3.92a2.43,2.43,0,0,0,.34,1.5h1l.08.7-2.58.5L240.41,16,238,17.76c-1.72,0-2.94-1-2.94-2.56a2.93,2.93,0,0,1,.7-1.84l4.5-1.5v-1c0-1.2-.1-1.92-1.18-1.92a4.8,4.8,0,0,0-1.64.36l-.34,1.58h-1.72V9.36Zm1.26,4.9-2.9,1.2A1.52,1.52,0,0,0,237,15c0,1,.58,1.38,1.16,1.38a2.37,2.37,0,0,0,1.3-.52l.84-.58Z"/>
  <path class="cls-1" d="M249.81,9.18a3.11,3.11,0,0,0-1.52-.44c-.78,0-1.52.42-1.52,1.18s.5,1,1.4,1.5l1.54.78c1.34.68,1.88,1.44,1.88,2.58,0,1.8-1.46,2.48-3.76,3a6.85,6.85,0,0,1-3-.9l-.38-2.26h1.28l.68,1.66a3,3,0,0,0,1.64.5,1.46,1.46,0,0,0,1.6-1.52c0-.78-.42-1.12-1.46-1.66l-1.58-.82a2.7,2.7,0,0,1-1.68-2.32c0-1.4,1.3-2.18,3.62-2.68a5.35,5.35,0,0,1,2.82.9v2h-1.06Z"/>
  <path class="cls-1" d="M261.67,7.76c2.52,0,3.16.64,3.16,3.18v3.92a2.43,2.43,0,0,0,.34,1.5h1l.08.7-2.58.5L263.05,16l-2.38,1.74c-1.72,0-2.94-1-2.94-2.56a2.93,2.93,0,0,1,.7-1.84l4.5-1.5v-1c0-1.2-.1-1.92-1.18-1.92a4.8,4.8,0,0,0-1.64.36l-.34,1.58h-1.72V9.36Zm1.26,4.9-2.9,1.2a1.52,1.52,0,0,0-.4,1.12c0,1,.58,1.38,1.16,1.38a2.37,2.37,0,0,0,1.3-.52l.84-.58Z"/>
  <path class="cls-1" d="M266.15,9.2V8.86l.7-.7h1.3V6.86l1.3-1.3H270V8.3h3v.9h-3v5.86c0,.58.22,1.2,1.06,1.2a3.37,3.37,0,0,0,1.58-.48l.34.68-2.34,1.3c-2.24,0-2.54-.8-2.54-2.6v-6Z"/>
  <path class="cls-1" d="M281.43,12.78l-1.3,3.74,1.74.26-.1.7-2.4-.06-2.14.06-.1-.7,1.56-.22,5-13,1.2-.34,5.22,13.3,1.56.22-.1.7-2.76-.06-2.64.06-.1-.7,1.7-.26-1.36-3.74Zm2.66-6.22L284,5.48l-2.2,6.36H286Z"/>
  <path class="cls-1" d="M300.13,14.86a3.27,3.27,0,0,0,.24,1.5h1l.08.7-2.58.5-.56-1.62-2.9,1.82c-2.64,0-3.08-.94-3.08-3.26V9.28l-1.4.1-.1-.78,2.4-.52,1-.08v6.66c0,1,.44,1.5,1.42,1.5a4.86,4.86,0,0,0,2.18-1l.4-.26V9.28l-1.2.1-.1-.78,2.2-.52,1-.08Z"/>
  <path class="cls-1" d="M307.75,9.18a3.11,3.11,0,0,0-1.52-.44c-.78,0-1.52.42-1.52,1.18s.5,1,1.4,1.5l1.54.78c1.34.68,1.88,1.44,1.88,2.58,0,1.8-1.46,2.48-3.76,3a6.85,6.85,0,0,1-3-.9l-.38-2.26h1.28l.68,1.66a3,3,0,0,0,1.64.5,1.46,1.46,0,0,0,1.6-1.52c0-.78-.42-1.12-1.46-1.66l-1.58-.82a2.7,2.7,0,0,1-1.68-2.32c0-1.4,1.3-2.18,3.62-2.68a5.35,5.35,0,0,1,2.82.9v2h-1.06Z"/>
  <path class="cls-1" d="M310.17,9.2V8.86l.7-.7h1.3V6.86l1.3-1.3H314V8.3h3v.9h-3v5.86c0,.58.22,1.2,1.06,1.2a3.37,3.37,0,0,0,1.58-.48l.34.68-2.34,1.3c-2.24,0-2.54-.8-2.54-2.6v-6Z"/>
  <path class="cls-1" d="M320.55,17.42l-2.3.06-.1-.7,1.4-.2V9.28l-1.4.12-.1-.7,2.4-.62,1-.08v8.58l1.5.2-.1.7Zm-1-13.76,1.44-.1.56.1.1,1.12-.22,1L320,5.86l-.54-.12-.12-1.12Z"/>
  <path class="cls-1" d="M326.25,17.42l-2.3.06-.1-.7,1.4-.2V9.28l-1.4.12-.1-.7,2.4-.62L327,8l.1,1.68,3-1.94c2.56,0,3,.86,3,3.26v5.56l1.52.2-.1.7-2.3-.06-1.92.06-.1-.7,1-.2V10.86c0-1-.46-1.5-1.32-1.5a4,4,0,0,0-2.08.9l-.6.4v5.92l1.1.2-.1.7Z"/>
</svg>
